<svg width="36" height="36" viewBox="0 0 36 36" fill="none" xmlns="http://www.w3.org/2000/svg">
<path d="M0 17.1154C0 9.04749 0 5.01355 2.50678 2.50678C5.01355 0 9.04749 0 17.1154 0H18.8846C26.9525 0 30.9864 0 33.4932 2.50678C36 5.01355 36 9.04749 36 17.1154V18.8846C36 26.9525 36 30.9864 33.4932 33.4932C30.9864 36 26.9525 36 18.8846 36H17.1154C9.04749 36 5.01355 36 2.50678 33.4932C0 30.9902 0 26.9562 0 18.8846V17.1154Z" fill="#0277FF"/>
<path fill-rule="evenodd" clip-rule="evenodd" d="M15.9357 20.0713C17.4979 21.6336 17.4979 24.1665 15.9357 25.7287L13.2166 28.4478C11.6543 30.0101 9.1214 30.0101 7.55914 28.4478C5.99689 26.8856 5.99689 24.3526 7.55915 22.7904L10.2782 20.0713C11.8405 18.509 14.3734 18.509 15.9357 20.0713Z" fill="white"/>
<path fill-rule="evenodd" clip-rule="evenodd" d="M7.55914 7.56189C9.1214 5.99963 11.6543 5.99963 13.2166 7.56189L15.9357 10.281C17.4979 11.8432 17.4979 14.3762 15.9357 15.9384C14.3734 17.5007 11.8405 17.5007 10.2782 15.9384L7.55915 13.2193C5.99689 11.6571 5.99689 9.12415 7.55914 7.56189Z" fill="white"/>
<path fill-rule="evenodd" clip-rule="evenodd" d="M20.0667 20.0713C21.629 18.509 24.1619 18.509 25.7241 20.0713L28.4432 22.7904C30.0055 24.3526 30.0055 26.8856 28.4432 28.4478C26.881 30.0101 24.3481 30.0101 22.7858 28.4478L20.0667 25.7287C18.5045 24.1665 18.5045 21.6336 20.0667 20.0713Z" fill="white"/>
<path fill-rule="evenodd" clip-rule="evenodd" d="M28.4432 7.56171C30.0055 9.12397 30.0055 11.6569 28.4432 13.2191L25.7242 15.9382C24.1619 17.5005 21.629 17.5005 20.0667 15.9382C18.5045 14.376 18.5045 11.8431 20.0667 10.2808L22.7858 7.56171C24.3481 5.99945 26.881 5.99945 28.4432 7.56171Z" fill="#01EAFF"/>
</svg>
